<svg width="26" height="26" viewBox="0 0 26 26" fill="none" xmlns="http://www.w3.org/2000/svg">
<path d="M3.03244 8.53467C3.32328 8.24391 3.7177 8.08057 4.12896 8.08057C4.54022 8.08057 4.93464 8.24391 5.22549 8.53467L12.9027 16.2119L20.5799 8.53467C20.8724 8.25215 21.2642 8.09582 21.6709 8.09935C22.0775 8.10289 22.4665 8.266 22.7541 8.55356C23.0417 8.84112 23.2048 9.23012 23.2083 9.63677C23.2118 10.0434 23.0555 10.4352 22.773 10.7277L13.9992 19.5015C13.7084 19.7922 13.314 19.9556 12.9027 19.9556C12.4915 19.9556 12.097 19.7922 11.8062 19.5015L3.03244 10.7277C2.74168 10.4369 2.57834 10.0424 2.57834 9.63119C2.57834 9.21993 2.74168 8.82551 3.03244 8.53467Z" fill="#3B3B3B"/>
</svg>
