<svg width="12" height="19" viewBox="0 0 12 19" fill="none" xmlns="http://www.w3.org/2000/svg">
<path d="M10.7682 1.00673C11.0229 1.26154 11.166 1.6071 11.166 1.96741C11.166 2.32772 11.0229 2.67328 10.7682 2.92809L4.04204 9.65423L10.7682 16.3804C11.0157 16.6366 11.1527 16.9799 11.1496 17.3362C11.1465 17.6924 11.0036 18.0332 10.7516 18.2852C10.4997 18.5371 10.1589 18.68 9.8026 18.6831C9.44632 18.6862 9.10308 18.5492 8.84681 18.3017L1.16 10.6149C0.905257 10.3601 0.762152 10.0145 0.762152 9.65422C0.762152 9.29392 0.905257 8.94836 1.16 8.69354L8.84681 1.00673C9.10163 0.751991 9.44718 0.608887 9.80749 0.608887C10.1678 0.608887 10.5134 0.751991 10.7682 1.00673Z" fill="#3B3B3B"/>
</svg>
