<svg width="11" height="19" viewBox="0 0 11 19" fill="none" xmlns="http://www.w3.org/2000/svg">
<path d="M0.410538 18.172C0.1558 17.9172 0.0126953 17.5716 0.0126953 17.2113C0.0126953 16.851 0.1558 16.5054 0.410538 16.2506L7.13667 9.52449L0.410538 2.79835C0.163019 2.54208 0.0260577 2.19884 0.0291537 1.84256C0.0322496 1.48628 0.175155 1.14548 0.42709 0.893539C0.679026 0.641603 1.01983 0.498701 1.37611 0.495605C1.73239 0.49251 2.07563 0.629471 2.3319 0.876989L10.0187 8.5638C10.2735 8.81862 10.4166 9.16418 10.4166 9.52449C10.4166 9.88479 10.2735 10.2304 10.0187 10.4852L2.3319 18.172C2.07709 18.4267 1.73153 18.5698 1.37122 18.5698C1.01091 18.5698 0.665353 18.4267 0.410538 18.172Z" fill="#3B3B3B"/>
</svg>
